<?xml version="1.0" encoding="utf-8"?>
<!-- Generator: Adobe Illustrator 21.0.0, SVG Export Plug-In . SVG Version: 6.00 Build 0)  -->
<svg version="1.1" xmlns="http://www.w3.org/2000/svg" xmlns:xlink="http://www.w3.org/1999/xlink" x="0px" y="0px"
	 viewBox="0 0 137.8 141.7" style="enable-background:new 0 0 137.8 141.7;" xml:space="preserve">
<style type="text/css">
	.st0{display:none;}
	.st1{display:inline;}
	.st2{fill:#FCD250;}
	.st3{fill:#8080F1;}
	.st4{fill:#B3B3FC;}
	.st5{fill:none;stroke:#8080F1;stroke-width:0.8123;stroke-linecap:round;stroke-linejoin:round;stroke-miterlimit:10;}
	.st6{fill:#FCDB7E;}
	.st7{fill:none;stroke:#FFEEB6;stroke-width:0.8123;stroke-linecap:round;stroke-linejoin:round;stroke-miterlimit:10;}
	.st8{fill:#C7EBFF;}
	.st9{fill:#FFEEB6;}
	.st10{fill:none;stroke:#FCBD24;stroke-width:0.8225;stroke-linecap:round;stroke-linejoin:round;stroke-miterlimit:10;}
	.st11{fill:#FB5252;}
	.st12{fill:none;stroke:#EC3A3B;stroke-width:0.8225;stroke-linecap:round;stroke-linejoin:round;stroke-miterlimit:10;}
	.st13{fill:#FFB229;}
	.st14{fill:none;stroke:#FFEEB6;stroke-width:0.8225;stroke-linecap:round;stroke-linejoin:round;stroke-miterlimit:10;}
	.st15{fill:none;stroke:#F8FAFB;stroke-width:0.8225;stroke-linecap:round;stroke-linejoin:round;stroke-miterlimit:10;}
	.st16{fill:none;stroke:#FFC8AF;stroke-width:0.8225;stroke-linecap:round;stroke-linejoin:round;stroke-miterlimit:10;}
	.st17{fill:none;stroke:#FFC8AF;stroke-width:0.8225;stroke-miterlimit:10;}
	.st18{fill:none;stroke:#FFC8AF;stroke-width:0.8773;stroke-linecap:round;stroke-linejoin:round;stroke-miterlimit:10;}
	.st19{fill:none;stroke:#FF8578;stroke-width:0.8773;stroke-miterlimit:10;}
	.st20{fill:none;stroke:#D7D7FF;stroke-width:0.8286;stroke-linecap:round;stroke-linejoin:round;stroke-miterlimit:10;}
	.st21{fill:none;stroke:#FFEEB6;stroke-width:0.8286;stroke-linecap:round;stroke-linejoin:round;stroke-miterlimit:10;}
	.st22{fill:#D7D7FF;}
	.st23{fill:none;stroke:#B3B3FC;stroke-width:0.8182;stroke-linecap:round;stroke-linejoin:round;stroke-miterlimit:10;}
	.st24{fill:none;stroke:#B3B3FC;stroke-width:0.8225;stroke-linecap:round;stroke-linejoin:round;stroke-miterlimit:10;}
	.st25{fill:#F8FAFB;}
	.st26{fill:none;stroke:#B3B3FC;stroke-width:0.7773;stroke-linecap:round;stroke-linejoin:round;stroke-miterlimit:10;}
	.st27{fill:none;stroke:#B3B3FC;stroke-width:0.7794;stroke-miterlimit:10;}
	.st28{fill:#F69110;}
	.st29{fill:#FCBD24;}
	.st30{fill:#FCBD24;stroke:#FCA120;stroke-width:0.8225;stroke-linecap:round;stroke-linejoin:round;stroke-miterlimit:10;}
	.st31{fill:none;stroke:#C7EBFF;stroke-width:0.8225;stroke-linecap:round;stroke-linejoin:round;stroke-miterlimit:10;}
	.st32{fill:#92CDFA;}
	.st33{fill:none;stroke:#5EB2FC;stroke-width:0.8034;stroke-linecap:round;stroke-linejoin:round;stroke-miterlimit:10;}
	.st34{fill:none;stroke:#92CDFA;stroke-width:0.8034;stroke-linecap:round;stroke-linejoin:round;stroke-miterlimit:10;}
	.st35{fill:none;stroke:#F8FAFB;stroke-width:0.8034;stroke-linecap:round;stroke-linejoin:round;stroke-miterlimit:10;}
	.st36{fill:none;stroke:#C7EBFF;stroke-width:0.8105;stroke-linecap:round;stroke-linejoin:round;stroke-miterlimit:10;}
	.st37{fill:none;stroke:#C7EBFF;stroke-width:0.7334;stroke-miterlimit:10;}
	.st38{fill:none;stroke:#F8FAFB;stroke-width:0.8876;stroke-linecap:round;stroke-linejoin:round;stroke-miterlimit:10;}
	.st39{fill:#2C8CF4;}
	.st40{fill:none;stroke:#B3B3FC;stroke-width:0.7108;stroke-linecap:round;stroke-linejoin:round;stroke-miterlimit:10;}
	.st41{fill:#5EB2FC;}
	.st42{fill:none;stroke:#C7EBFF;stroke-width:0.7108;stroke-miterlimit:10;}
	.st43{fill:none;stroke:#D7D7FF;stroke-width:0.7108;stroke-linecap:round;stroke-linejoin:round;stroke-miterlimit:10;}
	.st44{fill:#FFDECC;}
	.st45{fill:none;stroke:#FF8578;stroke-width:0.8225;stroke-linecap:round;stroke-linejoin:round;stroke-miterlimit:10;}
	.st46{fill:none;stroke:#EB7D16;stroke-width:0.8225;stroke-linecap:round;stroke-linejoin:round;stroke-miterlimit:10;}
	.st47{fill:none;stroke:#D7D7FF;stroke-width:0.8084;stroke-linecap:round;stroke-linejoin:round;stroke-miterlimit:10;}
	.st48{fill:none;stroke:#FFEEB6;stroke-width:0.7735;stroke-linecap:round;stroke-linejoin:round;stroke-miterlimit:10;}
	.st49{fill:none;stroke:#F69110;stroke-width:0.7735;stroke-linecap:round;stroke-linejoin:round;stroke-miterlimit:10;}
	.st50{fill:none;stroke:#D7D7FF;stroke-width:0.8104;stroke-linecap:round;stroke-linejoin:round;stroke-miterlimit:10;}
	.st51{fill:none;stroke:#FFEEB6;stroke-width:0.7754;stroke-linecap:round;stroke-linejoin:round;stroke-miterlimit:10;}
	.st52{fill:none;stroke:#F69110;stroke-width:0.7754;stroke-linecap:round;stroke-linejoin:round;stroke-miterlimit:10;}
	.st53{fill:none;stroke:#B3B3FC;stroke-width:0.8225;stroke-miterlimit:10;}
	.st54{fill:none;stroke:#D7D7FF;stroke-width:0.8225;stroke-miterlimit:10;}
	.st55{fill:none;stroke:#F8FAFB;stroke-width:0.8225;stroke-miterlimit:10;}
	.st56{fill:#4AD295;}
	.st57{fill:none;stroke:#FCBD24;stroke-width:0.823;stroke-linecap:round;stroke-linejoin:round;stroke-miterlimit:10;}
	.st58{fill:#0161CD;}
	.st59{fill:#0353A7;}
	.st60{fill:none;stroke:#1273EB;stroke-width:0.823;stroke-linecap:round;stroke-linejoin:round;stroke-miterlimit:10;}
	.st61{fill:none;stroke:#2C8CF4;stroke-width:0.823;stroke-linecap:round;stroke-linejoin:round;stroke-miterlimit:10;}
	.st62{fill:#1273EB;}
	.st63{fill:none;stroke:#5EB2FC;stroke-width:0.823;stroke-linecap:round;stroke-linejoin:round;stroke-miterlimit:10;}
	.st64{fill:none;stroke:#C7EBFF;stroke-width:0.823;stroke-linecap:round;stroke-linejoin:round;stroke-miterlimit:10;}
	.st65{fill:none;stroke:#1273EB;stroke-width:2.1295;stroke-linecap:round;stroke-linejoin:round;stroke-miterlimit:10;}
	.st66{fill:none;stroke:#2C8CF4;stroke-width:2.1295;stroke-linecap:round;stroke-linejoin:round;stroke-miterlimit:10;}
	.st67{fill:none;stroke:#F69110;stroke-width:0.823;stroke-linecap:round;stroke-linejoin:round;stroke-miterlimit:10;}
	.st68{fill:none;stroke:#FCDB7E;stroke-width:0.823;stroke-linecap:round;stroke-linejoin:round;stroke-miterlimit:10;}
	.st69{fill:none;stroke:#0353A7;stroke-width:0.823;stroke-linecap:round;stroke-linejoin:round;stroke-miterlimit:10;}
	.st70{fill:#869FB2;}
	.st71{fill:#69E781;}
	.st72{fill:#E2FFE2;}
	.st73{fill:none;stroke:#92CDFA;stroke-width:0.823;stroke-linecap:round;stroke-linejoin:round;stroke-miterlimit:10;}
	.st74{fill:none;stroke:#FFEEB6;stroke-width:0.823;stroke-linecap:round;stroke-linejoin:round;stroke-miterlimit:10;}
	.st75{fill:none;stroke:#0161CD;stroke-width:0.823;stroke-linecap:round;stroke-linejoin:round;stroke-miterlimit:10;}
	.st76{fill:none;stroke:#F8FAFB;stroke-width:0.823;stroke-linecap:round;stroke-linejoin:round;stroke-miterlimit:10;}
	.st77{fill:#EC3A3B;}
	.st78{fill:#FFC8AF;}
	.st79{fill:#FF8578;}
	.st80{fill:#FCA120;}
	.st81{fill:#EB7D16;}
	.st82{display:inline;fill:#BAC8D3;}
</style>
<g id="ICONOS_sin_expandir" class="st0">
</g>
<g id="ICONOS_EXPANDIDOS">
	<g id="XMLID_1487_">
		<g id="XMLID_1663_">
			<g id="XMLID_1690_">
				<path id="XMLID_1691_" class="st8" d="M103.9,54.6C103.3,53,71.4,34.8,68.7,34c0,0,0,0,0,0c0,0,0,0,0,0
					C65.9,34.8,33.9,53,33.3,54.6c-0.6,1.6-1,12.5,0.5,16.2c1.5,3.8,34.8,39.9,34.8,39.9s33.3-36.1,34.8-39.9
					C104.9,67.1,104.5,56.3,103.9,54.6z"/>
			</g>
			<g id="XMLID_1688_">
				<path id="XMLID_1689_" class="st32" d="M98.5,73.8c-4.1,1.4-8.2,2.9-12.4,4c-2,0.6-4.1,1.1-6.1,0.7c-4.1,1-8.6,0.6-12.8,0.6
					c-3.4,0-7.3,0.5-10.6-0.6c-0.3,0.2-0.7,0.4-1.2,0.3c-7.3-1.4-14.8-3.8-21.4-7.6c3.4,5.6,34.5,39.4,34.5,39.4
					s27.7-30.1,33.7-38.2C101.1,73,99.8,73.4,98.5,73.8z"/>
			</g>
			<g id="XMLID_1686_">
				<path id="XMLID_1687_" class="st41" d="M68,110.4c-0.1,0-0.2-0.1-0.3-0.2c-2.8-3.5-12.1-32.3-12.5-33.5c-0.1-0.2,0-0.4,0.3-0.5
					c0.2-0.1,0.4,0,0.5,0.3c0.1,0.3,9.7,29.8,12.4,33.2c0.1,0.2,0.1,0.4-0.1,0.6C68.2,110.4,68.1,110.4,68,110.4z"/>
			</g>
			<g id="XMLID_1684_">
				<path id="XMLID_1685_" class="st32" d="M55.2,74.8c-0.2,0-0.3-0.1-0.4-0.3c-0.8-3.3,0-14.9,0-15.4c0-0.2,0.2-0.4,0.4-0.4
					c0.2,0,0.4,0.2,0.4,0.4c0,0.1-0.8,12,0,15.2C55.7,74.6,55.5,74.8,55.2,74.8C55.3,74.8,55.2,74.8,55.2,74.8z"/>
			</g>
			<g id="XMLID_1682_">
				<path id="XMLID_1683_" class="st25" d="M55.2,57.7c0,0-0.1,0-0.1,0c-0.2-0.1-0.3-0.3-0.2-0.5c0.5-1.4,11.9-20.8,12.3-21.6
					c0.1-0.2,0.4-0.3,0.5-0.1c0.2,0.1,0.3,0.4,0.1,0.5C64.6,41.6,56,56.3,55.6,57.4C55.5,57.6,55.4,57.7,55.2,57.7z"/>
			</g>
			<g id="XMLID_1680_">
				<path id="XMLID_1681_" class="st25" d="M52.2,58.2c-4.8,0-16.2-1.1-17.6-2.2c-0.2-0.1-0.2-0.4-0.1-0.6c0.1-0.2,0.4-0.2,0.6-0.1
					c1.3,1,17.2,2.5,18.9,1.9c0.2-0.1,0.4,0,0.5,0.2s0,0.4-0.2,0.5C54,58.1,53.2,58.2,52.2,58.2z"/>
			</g>
			<g id="XMLID_1678_">
				<path id="XMLID_1679_" class="st41" d="M53,78.4c-4.5,0-15.8-4.5-16.8-5.7c-0.1-0.2-0.1-0.4,0.1-0.6c0.2-0.1,0.4-0.1,0.6,0.1
					c1.1,1.4,14.6,6.4,17.1,5.3c0.2-0.1,0.4,0,0.5,0.2c0.1,0.2,0,0.4-0.2,0.5C54,78.3,53.5,78.4,53,78.4z"/>
			</g>
			<g id="XMLID_1676_">
				<path id="XMLID_1677_" class="st41" d="M68.9,110.4c-0.1,0-0.2,0-0.2-0.1c-0.2-0.1-0.2-0.4-0.1-0.6c2.7-3.4,12.3-32.9,12.4-33.2
					c0.1-0.2,0.3-0.3,0.5-0.3c0.2,0.1,0.3,0.3,0.3,0.5c-0.4,1.2-9.7,30-12.5,33.5C69.1,110.3,69,110.4,68.9,110.4z"/>
			</g>
			<g id="XMLID_1674_">
				<path id="XMLID_1675_" class="st32" d="M81.7,74.8C81.6,74.8,81.6,74.8,81.7,74.8c-0.3-0.1-0.4-0.3-0.4-0.5
					c0.8-3.2,0-15.1,0-15.2c0-0.2,0.2-0.4,0.4-0.4c0.2,0,0.4,0.2,0.4,0.4c0,0.5,0.8,12.1,0,15.4C82,74.7,81.8,74.8,81.7,74.8z"/>
			</g>
			<g id="XMLID_1672_">
				<path id="XMLID_1673_" class="st25" d="M81.7,57.7c-0.2,0-0.3-0.1-0.4-0.3c-0.4-1.1-9-15.9-12.3-21.4c-0.1-0.2,0-0.4,0.1-0.5
					c0.2-0.1,0.4,0,0.5,0.1c0.5,0.8,11.8,20.1,12.3,21.6c0.1,0.2,0,0.4-0.2,0.5C81.8,57.7,81.7,57.7,81.7,57.7z"/>
			</g>
			<g id="XMLID_1670_">
				<path id="XMLID_1671_" class="st25" d="M84.7,58.2c-1,0-1.8,0-2.1-0.2c-0.2-0.1-0.3-0.3-0.2-0.5c0.1-0.2,0.3-0.3,0.5-0.2
					c1.7,0.7,17.6-0.9,18.9-1.9c0.2-0.1,0.4-0.1,0.6,0.1s0.1,0.4-0.1,0.6C100.8,57.1,89.5,58.2,84.7,58.2z"/>
			</g>
			<g id="XMLID_1668_">
				<path id="XMLID_1669_" class="st41" d="M83.9,78.4c-0.5,0-1-0.1-1.3-0.2c-0.2-0.1-0.3-0.3-0.2-0.5c0.1-0.2,0.3-0.3,0.5-0.2
					c2.5,1.1,16-3.9,17.1-5.3c0.1-0.2,0.4-0.2,0.6-0.1c0.2,0.1,0.2,0.4,0.1,0.6C99.7,73.9,88.4,78.4,83.9,78.4z"/>
			</g>
			<g id="XMLID_1666_">
				<path id="XMLID_1667_" class="st25" d="M58.7,58.2c-0.7,0-1.3,0-1.5,0c-0.2,0-0.4-0.2-0.4-0.4c0-0.2,0.2-0.4,0.4-0.4
					c1.8,0.2,22.1-0.5,22.3-0.5c0.2,0,0.4,0.2,0.4,0.4c0,0.2-0.2,0.4-0.4,0.4C78.8,57.7,63.8,58.2,58.7,58.2z"/>
			</g>
			<g id="XMLID_1664_">
				<path id="XMLID_1665_" class="st41" d="M64.9,79.1c-3.2,0-5.7-0.1-6.2-0.3c-0.2-0.1-0.3-0.3-0.2-0.5c0.1-0.2,0.3-0.3,0.5-0.2
					c0.9,0.4,12.6,0.2,19.8,0c0.2,0,0.4,0.2,0.4,0.4s-0.2,0.4-0.4,0.4C76.9,79,70.1,79.1,64.9,79.1z"/>
			</g>
		</g>
		<g id="XMLID_1488_">
			<g id="XMLID_1510_">
				<g id="XMLID_1515_">
					<path id="XMLID_1516_" class="st8" d="M30.9,111.4c0,0-0.1,0-0.1,0c-0.2-0.1-0.3-0.3-0.3-0.5c0.4-1.2,2.9-3.9,5.1-6.4
						c1.3-1.5,2.6-2.9,2.9-3.4c0.1-0.2,0.4-0.3,0.5-0.2c0.2,0.1,0.3,0.4,0.2,0.5c-0.3,0.5-1.3,1.7-3,3.5c-1.9,2.2-4.6,5.1-4.9,6.1
						C31.2,111.3,31,111.4,30.9,111.4z"/>
				</g>
				<g id="XMLID_1513_">
					<path id="XMLID_1514_" class="st8" d="M37.7,111.1C37.7,111.1,37.7,111.1,37.7,111.1c-0.3,0-0.4-0.2-0.4-0.5
						c0.2-1.2,1.5-3.2,2.7-5c0.7-1.1,1.4-2.1,1.6-2.6c0.1-0.2,0.3-0.3,0.5-0.2c0.2,0.1,0.3,0.3,0.2,0.5c-0.2,0.6-0.9,1.6-1.7,2.8
						c-1.1,1.6-2.4,3.7-2.6,4.7C38.1,110.9,37.9,111.1,37.7,111.1z"/>
				</g>
				<g id="XMLID_1511_">
					<path id="XMLID_1512_" class="st8" d="M30.7,105.2c-0.1,0-0.1,0-0.2,0c-0.2-0.1-0.3-0.3-0.2-0.5c0.5-1.1,2.3-2.7,3.9-4.1
						c1-0.9,1.9-1.7,2.2-2.1c0.1-0.2,0.4-0.2,0.6-0.1c0.2,0.1,0.2,0.4,0.1,0.6c-0.4,0.5-1.3,1.3-2.3,2.3c-1.5,1.3-3.3,2.9-3.7,3.8
						C31.1,105.1,30.9,105.2,30.7,105.2z"/>
				</g>
			</g>
			<g id="XMLID_1503_">
				<g id="XMLID_1508_">
					<path id="XMLID_1509_" class="st8" d="M107.2,111.4c-0.2,0-0.3-0.1-0.4-0.3c-0.3-1-3-3.9-4.9-6.1c-1.7-1.8-2.7-3-3-3.5
						c-0.1-0.2,0-0.4,0.2-0.5c0.2-0.1,0.4,0,0.5,0.2c0.3,0.5,1.5,1.9,2.9,3.4c2.2,2.5,4.7,5.3,5.1,6.4c0.1,0.2-0.1,0.4-0.3,0.5
						C107.3,111.4,107.3,111.4,107.2,111.4z"/>
				</g>
				<g id="XMLID_1506_">
					<path id="XMLID_1507_" class="st8" d="M100.4,111.1c-0.2,0-0.4-0.1-0.4-0.3c-0.2-1-1.5-3.1-2.6-4.7c-0.8-1.2-1.4-2.2-1.7-2.8
						c-0.1-0.2,0-0.4,0.2-0.5c0.2-0.1,0.4,0,0.5,0.2c0.2,0.5,0.9,1.5,1.6,2.6c1.2,1.8,2.5,3.8,2.7,5
						C100.8,110.8,100.7,111,100.4,111.1C100.4,111.1,100.4,111.1,100.4,111.1z"/>
				</g>
				<g id="XMLID_1504_">
					<path id="XMLID_1505_" class="st8" d="M107.3,105.2c-0.2,0-0.3-0.1-0.4-0.2c-0.4-0.9-2.3-2.6-3.7-3.8c-1.1-0.9-2-1.7-2.3-2.3
						c-0.1-0.2-0.1-0.4,0.1-0.6c0.2-0.1,0.4-0.1,0.6,0.1c0.3,0.4,1.2,1.3,2.2,2.1c1.6,1.4,3.4,3,3.9,4.1c0.1,0.2,0,0.4-0.2,0.5
						C107.5,105.2,107.4,105.2,107.3,105.2z"/>
				</g>
			</g>
			<g id="XMLID_1496_">
				<g id="XMLID_1501_">
					<path id="XMLID_1502_" class="st8" d="M38.8,44.2c-0.1,0-0.3-0.1-0.4-0.2c-0.3-0.5-1.5-1.9-2.9-3.4c-2.2-2.5-4.7-5.3-5.1-6.4
						c-0.1-0.2,0.1-0.4,0.3-0.5c0.2-0.1,0.4,0.1,0.5,0.3c0.3,1,3,3.9,4.9,6.1c1.7,1.8,2.7,3,3,3.5c0.1,0.2,0,0.4-0.2,0.5
						C38.9,44.2,38.8,44.2,38.8,44.2z"/>
				</g>
				<g id="XMLID_1499_">
					<path id="XMLID_1500_" class="st8" d="M42,42.4c-0.2,0-0.3-0.1-0.4-0.3c-0.2-0.5-0.9-1.5-1.6-2.6c-1.2-1.8-2.5-3.8-2.7-5
						c0-0.2,0.1-0.4,0.3-0.5c0.2,0,0.4,0.1,0.5,0.3c0.2,1,1.5,3.1,2.6,4.7c0.8,1.2,1.4,2.2,1.7,2.8c0.1,0.2,0,0.4-0.2,0.5
						C42,42.4,42,42.4,42,42.4z"/>
				</g>
				<g id="XMLID_1497_">
					<path id="XMLID_1498_" class="st8" d="M36.9,46.9c-0.1,0-0.3-0.1-0.3-0.2c-0.3-0.4-1.2-1.3-2.2-2.1c-1.6-1.4-3.4-3-3.9-4.1
						c-0.1-0.2,0-0.4,0.2-0.5c0.2-0.1,0.4,0,0.5,0.2c0.4,0.9,2.3,2.6,3.7,3.8c1.1,0.9,2,1.7,2.3,2.3c0.1,0.2,0.1,0.4-0.1,0.6
						C37,46.9,36.9,46.9,36.9,46.9z"/>
				</g>
			</g>
			<g id="XMLID_1489_">
				<g id="XMLID_1494_">
					<path id="XMLID_1495_" class="st8" d="M99.3,44.2c-0.1,0-0.1,0-0.2,0c-0.2-0.1-0.3-0.4-0.2-0.5c0.3-0.5,1.3-1.7,3-3.5
						c1.9-2.2,4.6-5.1,4.9-6.1c0.1-0.2,0.3-0.3,0.5-0.3c0.2,0.1,0.3,0.3,0.3,0.5c-0.4,1.2-2.9,3.9-5.1,6.4c-1.3,1.5-2.6,2.9-2.9,3.4
						C99.6,44.1,99.5,44.2,99.3,44.2z"/>
				</g>
				<g id="XMLID_1492_">
					<path id="XMLID_1493_" class="st8" d="M96.1,42.4c0,0-0.1,0-0.1,0c-0.2-0.1-0.3-0.3-0.2-0.5c0.2-0.6,0.9-1.6,1.7-2.8
						c1.1-1.6,2.4-3.7,2.6-4.7c0-0.2,0.2-0.4,0.5-0.3c0.2,0,0.4,0.2,0.3,0.5c-0.2,1.2-1.5,3.2-2.7,5c-0.7,1.1-1.4,2.1-1.6,2.6
						C96.5,42.3,96.3,42.4,96.1,42.4z"/>
				</g>
				<g id="XMLID_1490_">
					<path id="XMLID_1491_" class="st8" d="M101.2,46.9c-0.1,0-0.2,0-0.2-0.1c-0.2-0.1-0.2-0.4-0.1-0.6c0.4-0.5,1.3-1.3,2.3-2.3
						c1.5-1.3,3.3-2.9,3.7-3.8c0.1-0.2,0.3-0.3,0.5-0.2c0.2,0.1,0.3,0.3,0.2,0.5c-0.5,1.1-2.3,2.7-3.9,4.1c-1,0.9-1.9,1.7-2.2,2.1
						C101.5,46.9,101.4,46.9,101.2,46.9z"/>
				</g>
			</g>
		</g>
	</g>
</g>
<g id="guias" class="st0">
</g>
</svg>
