<?xml version="1.0" encoding="utf-8"?>
<!-- Generator: Adobe Illustrator 21.0.0, SVG Export Plug-In . SVG Version: 6.00 Build 0)  -->
<svg version="1.1" xmlns="http://www.w3.org/2000/svg" xmlns:xlink="http://www.w3.org/1999/xlink" x="0px" y="0px"
	 viewBox="0 0 137.8 141.7" style="enable-background:new 0 0 137.8 141.7;" xml:space="preserve">
<style type="text/css">
	.st0{display:none;}
	.st1{display:inline;}
	.st2{fill:#FCD250;}
	.st3{fill:#8080F1;}
	.st4{fill:#B3B3FC;}
	.st5{fill:none;stroke:#8080F1;stroke-width:0.8123;stroke-linecap:round;stroke-linejoin:round;stroke-miterlimit:10;}
	.st6{fill:#FCDB7E;}
	.st7{fill:none;stroke:#FFEEB6;stroke-width:0.8123;stroke-linecap:round;stroke-linejoin:round;stroke-miterlimit:10;}
	.st8{fill:#C7EBFF;}
	.st9{fill:#FFEEB6;}
	.st10{fill:none;stroke:#FCBD24;stroke-width:0.8225;stroke-linecap:round;stroke-linejoin:round;stroke-miterlimit:10;}
	.st11{fill:#FB5252;}
	.st12{fill:none;stroke:#EC3A3B;stroke-width:0.8225;stroke-linecap:round;stroke-linejoin:round;stroke-miterlimit:10;}
	.st13{fill:#FFB229;}
	.st14{fill:none;stroke:#FFEEB6;stroke-width:0.8225;stroke-linecap:round;stroke-linejoin:round;stroke-miterlimit:10;}
	.st15{fill:none;stroke:#F8FAFB;stroke-width:0.8225;stroke-linecap:round;stroke-linejoin:round;stroke-miterlimit:10;}
	.st16{fill:none;stroke:#FFC8AF;stroke-width:0.8225;stroke-linecap:round;stroke-linejoin:round;stroke-miterlimit:10;}
	.st17{fill:none;stroke:#FFC8AF;stroke-width:0.8225;stroke-miterlimit:10;}
	.st18{fill:none;stroke:#FFC8AF;stroke-width:0.8773;stroke-linecap:round;stroke-linejoin:round;stroke-miterlimit:10;}
	.st19{fill:none;stroke:#FF8578;stroke-width:0.8773;stroke-miterlimit:10;}
	.st20{fill:none;stroke:#D7D7FF;stroke-width:0.8286;stroke-linecap:round;stroke-linejoin:round;stroke-miterlimit:10;}
	.st21{fill:none;stroke:#FFEEB6;stroke-width:0.8286;stroke-linecap:round;stroke-linejoin:round;stroke-miterlimit:10;}
	.st22{fill:#D7D7FF;}
	.st23{fill:none;stroke:#B3B3FC;stroke-width:0.8182;stroke-linecap:round;stroke-linejoin:round;stroke-miterlimit:10;}
	.st24{fill:none;stroke:#B3B3FC;stroke-width:0.8225;stroke-linecap:round;stroke-linejoin:round;stroke-miterlimit:10;}
	.st25{fill:#F8FAFB;}
	.st26{fill:none;stroke:#B3B3FC;stroke-width:0.7773;stroke-linecap:round;stroke-linejoin:round;stroke-miterlimit:10;}
	.st27{fill:none;stroke:#B3B3FC;stroke-width:0.7794;stroke-miterlimit:10;}
	.st28{fill:#F69110;}
	.st29{fill:#FCBD24;}
	.st30{fill:#FCBD24;stroke:#FCA120;stroke-width:0.8225;stroke-linecap:round;stroke-linejoin:round;stroke-miterlimit:10;}
	.st31{fill:none;stroke:#C7EBFF;stroke-width:0.8225;stroke-linecap:round;stroke-linejoin:round;stroke-miterlimit:10;}
	.st32{fill:#92CDFA;}
	.st33{fill:none;stroke:#5EB2FC;stroke-width:0.8034;stroke-linecap:round;stroke-linejoin:round;stroke-miterlimit:10;}
	.st34{fill:none;stroke:#92CDFA;stroke-width:0.8034;stroke-linecap:round;stroke-linejoin:round;stroke-miterlimit:10;}
	.st35{fill:none;stroke:#F8FAFB;stroke-width:0.8034;stroke-linecap:round;stroke-linejoin:round;stroke-miterlimit:10;}
	.st36{fill:none;stroke:#C7EBFF;stroke-width:0.8105;stroke-linecap:round;stroke-linejoin:round;stroke-miterlimit:10;}
	.st37{fill:none;stroke:#C7EBFF;stroke-width:0.7334;stroke-miterlimit:10;}
	.st38{fill:none;stroke:#F8FAFB;stroke-width:0.8876;stroke-linecap:round;stroke-linejoin:round;stroke-miterlimit:10;}
	.st39{fill:#2C8CF4;}
	.st40{fill:none;stroke:#B3B3FC;stroke-width:0.7108;stroke-linecap:round;stroke-linejoin:round;stroke-miterlimit:10;}
	.st41{fill:#5EB2FC;}
	.st42{fill:none;stroke:#C7EBFF;stroke-width:0.7108;stroke-miterlimit:10;}
	.st43{fill:none;stroke:#D7D7FF;stroke-width:0.7108;stroke-linecap:round;stroke-linejoin:round;stroke-miterlimit:10;}
	.st44{fill:#FFDECC;}
	.st45{fill:none;stroke:#FF8578;stroke-width:0.8225;stroke-linecap:round;stroke-linejoin:round;stroke-miterlimit:10;}
	.st46{fill:none;stroke:#EB7D16;stroke-width:0.8225;stroke-linecap:round;stroke-linejoin:round;stroke-miterlimit:10;}
	.st47{fill:none;stroke:#D7D7FF;stroke-width:0.8084;stroke-linecap:round;stroke-linejoin:round;stroke-miterlimit:10;}
	.st48{fill:none;stroke:#FFEEB6;stroke-width:0.7735;stroke-linecap:round;stroke-linejoin:round;stroke-miterlimit:10;}
	.st49{fill:none;stroke:#F69110;stroke-width:0.7735;stroke-linecap:round;stroke-linejoin:round;stroke-miterlimit:10;}
	.st50{fill:none;stroke:#D7D7FF;stroke-width:0.8104;stroke-linecap:round;stroke-linejoin:round;stroke-miterlimit:10;}
	.st51{fill:none;stroke:#FFEEB6;stroke-width:0.7754;stroke-linecap:round;stroke-linejoin:round;stroke-miterlimit:10;}
	.st52{fill:none;stroke:#F69110;stroke-width:0.7754;stroke-linecap:round;stroke-linejoin:round;stroke-miterlimit:10;}
	.st53{fill:none;stroke:#B3B3FC;stroke-width:0.8225;stroke-miterlimit:10;}
	.st54{fill:none;stroke:#D7D7FF;stroke-width:0.8225;stroke-miterlimit:10;}
	.st55{fill:none;stroke:#F8FAFB;stroke-width:0.8225;stroke-miterlimit:10;}
	.st56{fill:#4AD295;}
	.st57{fill:none;stroke:#FCBD24;stroke-width:0.823;stroke-linecap:round;stroke-linejoin:round;stroke-miterlimit:10;}
	.st58{fill:#0161CD;}
	.st59{fill:#0353A7;}
	.st60{fill:none;stroke:#1273EB;stroke-width:0.823;stroke-linecap:round;stroke-linejoin:round;stroke-miterlimit:10;}
	.st61{fill:none;stroke:#2C8CF4;stroke-width:0.823;stroke-linecap:round;stroke-linejoin:round;stroke-miterlimit:10;}
	.st62{fill:#1273EB;}
	.st63{fill:none;stroke:#5EB2FC;stroke-width:0.823;stroke-linecap:round;stroke-linejoin:round;stroke-miterlimit:10;}
	.st64{fill:none;stroke:#C7EBFF;stroke-width:0.823;stroke-linecap:round;stroke-linejoin:round;stroke-miterlimit:10;}
	.st65{fill:none;stroke:#1273EB;stroke-width:2.1295;stroke-linecap:round;stroke-linejoin:round;stroke-miterlimit:10;}
	.st66{fill:none;stroke:#2C8CF4;stroke-width:2.1295;stroke-linecap:round;stroke-linejoin:round;stroke-miterlimit:10;}
	.st67{fill:none;stroke:#F69110;stroke-width:0.823;stroke-linecap:round;stroke-linejoin:round;stroke-miterlimit:10;}
	.st68{fill:none;stroke:#FCDB7E;stroke-width:0.823;stroke-linecap:round;stroke-linejoin:round;stroke-miterlimit:10;}
	.st69{fill:none;stroke:#0353A7;stroke-width:0.823;stroke-linecap:round;stroke-linejoin:round;stroke-miterlimit:10;}
	.st70{fill:#869FB2;}
	.st71{fill:#69E781;}
	.st72{fill:#E2FFE2;}
	.st73{fill:none;stroke:#92CDFA;stroke-width:0.823;stroke-linecap:round;stroke-linejoin:round;stroke-miterlimit:10;}
	.st74{fill:none;stroke:#FFEEB6;stroke-width:0.823;stroke-linecap:round;stroke-linejoin:round;stroke-miterlimit:10;}
	.st75{fill:none;stroke:#0161CD;stroke-width:0.823;stroke-linecap:round;stroke-linejoin:round;stroke-miterlimit:10;}
	.st76{fill:none;stroke:#F8FAFB;stroke-width:0.823;stroke-linecap:round;stroke-linejoin:round;stroke-miterlimit:10;}
	.st77{fill:#EC3A3B;}
	.st78{fill:#FFC8AF;}
	.st79{fill:#FF8578;}
	.st80{fill:#FCA120;}
	.st81{fill:#EB7D16;}
	.st82{display:inline;fill:#BAC8D3;}
</style>
<g id="ICONOS_sin_expandir" class="st0">
</g>
<g id="ICONOS_EXPANDIDOS">
	<g id="XMLID_1547_">
		<g id="XMLID_1656_">
			<path id="XMLID_1657_" class="st4" d="M32.5,98.4c0,0-2.9-50.3,0.2-53.3s59.5-3,60.5,0.3c1,3.3,1.2,53.7,0,59.2
				c-1,4.7-43.4,2-56.3,1c-2.2-0.2-3.9-2.6-4.3-5.9L32.5,98.4z"/>
		</g>
		<g id="XMLID_1654_">
			<path id="XMLID_1655_" class="st29" d="M106.5,47.6c0-8.3-4.3-14.8-13.8-14.8s-15.1,5.3-15.1,15.8S89,61.1,94.7,61.1
				C100.5,61.1,106.5,54.7,106.5,47.6z"/>
		</g>
		<g id="XMLID_1652_">
			<path id="XMLID_1653_" class="st9" d="M85.5,50.5l3.6-3.5L85.5,43c0,0,2.4-3.1,3.7-3.1c0.6,0,3.5,3.5,3.5,3.5s3.8-3.5,4.4-3.5
				c0.6,0,2.9,2.4,2.9,3.2s-3.7,3.8-3.7,3.8s3.9,2.8,3.3,3.5c-0.6,0.8-2.9,4.1-3.7,3.5c-0.8-0.6-3.3-3.2-3.3-3.2s-2.7,2.7-3,3.2
				S86.5,51.8,85.5,50.5z"/>
		</g>
		<g id="XMLID_1576_">
			<path id="XMLID_1651_" class="st22" d="M35,55.8C35,55.8,35,55.8,35,55.8c-0.2,0-0.4-0.2-0.4-0.4c0-0.3,0.3-6.8,3.5-7.7
				c3.1-0.8,26.5-0.8,33.4,0c0.2,0,0.4,0.2,0.4,0.4c0,0.2-0.2,0.4-0.4,0.4c-6.9-0.8-30.1-0.8-33.1,0c-2.2,0.6-2.9,5.2-2.9,7
				C35.4,55.6,35.2,55.8,35,55.8z"/>
		</g>
		<g id="XMLID_1574_">
			<path id="XMLID_1575_" class="st9" d="M77.7,48.2c-0.2,0-0.4-0.1-0.4-0.3c-0.4-2.5,0.4-6.4,2.9-9.6c2.6-3.3,6.7-5.3,11.9-5.8
				c4.2-0.4,7.6,0.8,10.2,3.4c4,4,4.8,10.1,4.6,11.8c0,0.2-0.2,0.4-0.4,0.3c-0.2,0-0.4-0.2-0.3-0.4c0.1-1.4-0.6-7.3-4.4-11.1
				c-2.4-2.5-5.7-3.5-9.6-3.2c-5,0.5-8.8,2.3-11.3,5.5c-2.3,3-3.1,6.6-2.7,9C78.1,48,78,48.2,77.7,48.2
				C77.7,48.2,77.7,48.2,77.7,48.2z"/>
		</g>
		<g id="XMLID_1572_">
			<path id="XMLID_1573_" class="st28" d="M92.7,61.3c-0.5,0-1,0-1.5,0C78,60.6,77.3,48.8,77.3,48.7c0-0.2,0.2-0.4,0.4-0.4
				c0.2,0,0.4,0.2,0.4,0.4c0,0.5,0.6,11.2,13.2,11.9c13.5,0.7,14.4-8,14.8-11.3c0-0.3,0.1-0.5,0.1-0.7c0-0.2,0.2-0.4,0.4-0.3
				c0.2,0,0.4,0.2,0.3,0.4c0,0.2,0,0.4-0.1,0.6C106.5,52.3,105.6,61.3,92.7,61.3z"/>
		</g>
		<g id="XMLID_1548_">
			<g id="XMLID_1569_">
				<g id="XMLID_1570_">
					<path id="XMLID_1571_" class="st22" d="M72.2,61.1c-0.4-0.2-3.2,0.8-6,3.1c-3.8,3.2-6.8,4.9-11.8,4.8c-0.5,0,1.1,0,0.9,0
						c-1.5-0.1-2.5,0-2.7,1.1c0,0,0.1,8,0,8.7c0,0.7-0.2,1.3,0.6,1.4c0.2,0,1,0.1,2.2,0.1c5.7,0.1,7.4,2.1,11.8,5.7
						c1.1,0.9,2.5,1.8,4,2.1c1.6,0.3,1.6-1.6,1.6-2.7c0-2.3,0-4.6,0-6.9c0-3.6,0-7.2,0-10.8c0-1.3-0.1-2.7,0-4
						C73,63,73.1,61.5,72.2,61.1z"/>
				</g>
			</g>
			<g id="XMLID_1562_">
				<path id="XMLID_1568_" class="st22" d="M51,69.7c-0.6,0-3.3,0-4.1,0c-3.1,0.2-5.2,1.3-4.9,5c0.3,3.9,1.8,5.3,5.3,5.3
					c0.6,0,3.2,0,3.8-0.1C51,76.4,51,69.7,51,69.7z"/>
			</g>
			<g id="XMLID_1558_">
				<path id="XMLID_1561_" class="st22" d="M49.8,82c-0.1-0.1-0.4,0-0.5,0c-0.3,0-0.5,0-0.8,0c-0.4,0-0.8,0-1.2,0
					c-0.2,0-0.4,0.2-0.4,0.4C47,85,47.3,94.2,49,94.2c1,0,3.6,0.5,5.1-0.1c0.4-0.2,0.4-1.4,0.3-2.3c-0.1-1-1.2-1.8-2.2-3.7
					c-0.6-1.1-1-2.1-1.5-4.5C50.6,83.1,50.5,82.3,49.8,82z"/>
			</g>
			<g id="XMLID_1556_">
				<path id="XMLID_1557_" class="st22" d="M80.3,71.2c-0.4-0.9-0.9-1.8-1.5-2.5c-0.2-0.3-0.9-1.1-1.3-1.1c-0.1,0-0.3,0.1-0.4,0.3
					c-0.2,0.4,0.1,0.6,0.3,0.9c0.3,0.2,0.5,0.5,0.7,0.8c1.2,1.6,1.8,3.7,1.9,5.7c-0.1,2-0.7,4.1-1.9,5.7c-0.2,0.3-0.5,0.5-0.7,0.8
					c-0.2,0.2-0.5,0.5-0.3,0.9c0.1,0.2,0.2,0.3,0.4,0.3c0.5,0,1.1-0.8,1.3-1.1c0.6-0.8,1.1-1.6,1.5-2.5c0.6-1.3,0.9-2.7,0.8-4.1
					C81.2,73.9,80.9,72.5,80.3,71.2z"/>
			</g>
			<g id="XMLID_1554_">
				<path id="XMLID_1555_" class="st22" d="M85.1,68.5c-0.6-1.5-1.5-3-2.5-4.3c-0.4-0.4-1.5-1.7-2-1.7c-0.2,0-0.4,0-0.5,0.2
					c-0.3,0.6,0.2,1,0.6,1.4c0.5,0.4,1.2,1.1,1.5,1.6c2,2.8,3.1,6.3,3.2,9.7c-0.1,3.4-1.1,7-3.2,9.7c-0.4,0.5-0.8,0.9-1.3,1.3
					c-0.4,0.4-1,1-0.6,1.5c0.1,0.2,0.2,0.2,0.4,0.2c0.5,0,1.5-1,1.8-1.5c1-1.3,1.9-2.7,2.5-4.3c0.9-2.2,1.5-4.6,1.4-7
					C86.6,73.1,86.1,70.7,85.1,68.5z"/>
			</g>
		</g>
	</g>
</g>
<g id="guias" class="st0">
</g>
</svg>
