<?xml version="1.0" encoding="utf-8"?>
<!-- Generator: Adobe Illustrator 21.0.0, SVG Export Plug-In . SVG Version: 6.00 Build 0)  -->
<svg version="1.1" xmlns="http://www.w3.org/2000/svg" xmlns:xlink="http://www.w3.org/1999/xlink" x="0px" y="0px"
	 viewBox="0 0 137.8 141.7" style="enable-background:new 0 0 137.8 141.7;" xml:space="preserve">
<style type="text/css">
	.st0{display:none;}
	.st1{display:inline;}
	.st2{fill:#FCD250;}
	.st3{fill:#8080F1;}
	.st4{fill:#B3B3FC;}
	.st5{fill:none;stroke:#8080F1;stroke-width:0.8123;stroke-linecap:round;stroke-linejoin:round;stroke-miterlimit:10;}
	.st6{fill:#FCDB7E;}
	.st7{fill:none;stroke:#FFEEB6;stroke-width:0.8123;stroke-linecap:round;stroke-linejoin:round;stroke-miterlimit:10;}
	.st8{fill:#C7EBFF;}
	.st9{fill:#FFEEB6;}
	.st10{fill:none;stroke:#FCBD24;stroke-width:0.8225;stroke-linecap:round;stroke-linejoin:round;stroke-miterlimit:10;}
	.st11{fill:#FB5252;}
	.st12{fill:none;stroke:#EC3A3B;stroke-width:0.8225;stroke-linecap:round;stroke-linejoin:round;stroke-miterlimit:10;}
	.st13{fill:#FFB229;}
	.st14{fill:none;stroke:#FFEEB6;stroke-width:0.8225;stroke-linecap:round;stroke-linejoin:round;stroke-miterlimit:10;}
	.st15{fill:none;stroke:#F8FAFB;stroke-width:0.8225;stroke-linecap:round;stroke-linejoin:round;stroke-miterlimit:10;}
	.st16{fill:none;stroke:#FFC8AF;stroke-width:0.8225;stroke-linecap:round;stroke-linejoin:round;stroke-miterlimit:10;}
	.st17{fill:none;stroke:#FFC8AF;stroke-width:0.8225;stroke-miterlimit:10;}
	.st18{fill:none;stroke:#FFC8AF;stroke-width:0.8773;stroke-linecap:round;stroke-linejoin:round;stroke-miterlimit:10;}
	.st19{fill:none;stroke:#FF8578;stroke-width:0.8773;stroke-miterlimit:10;}
	.st20{fill:none;stroke:#D7D7FF;stroke-width:0.8286;stroke-linecap:round;stroke-linejoin:round;stroke-miterlimit:10;}
	.st21{fill:none;stroke:#FFEEB6;stroke-width:0.8286;stroke-linecap:round;stroke-linejoin:round;stroke-miterlimit:10;}
	.st22{fill:#D7D7FF;}
	.st23{fill:none;stroke:#B3B3FC;stroke-width:0.8182;stroke-linecap:round;stroke-linejoin:round;stroke-miterlimit:10;}
	.st24{fill:none;stroke:#B3B3FC;stroke-width:0.8225;stroke-linecap:round;stroke-linejoin:round;stroke-miterlimit:10;}
	.st25{fill:#F8FAFB;}
	.st26{fill:none;stroke:#B3B3FC;stroke-width:0.7773;stroke-linecap:round;stroke-linejoin:round;stroke-miterlimit:10;}
	.st27{fill:none;stroke:#B3B3FC;stroke-width:0.7794;stroke-miterlimit:10;}
	.st28{fill:#F69110;}
	.st29{fill:#FCBD24;}
	.st30{fill:#FCBD24;stroke:#FCA120;stroke-width:0.8225;stroke-linecap:round;stroke-linejoin:round;stroke-miterlimit:10;}
	.st31{fill:none;stroke:#C7EBFF;stroke-width:0.8225;stroke-linecap:round;stroke-linejoin:round;stroke-miterlimit:10;}
	.st32{fill:#92CDFA;}
	.st33{fill:none;stroke:#5EB2FC;stroke-width:0.8034;stroke-linecap:round;stroke-linejoin:round;stroke-miterlimit:10;}
	.st34{fill:none;stroke:#92CDFA;stroke-width:0.8034;stroke-linecap:round;stroke-linejoin:round;stroke-miterlimit:10;}
	.st35{fill:none;stroke:#F8FAFB;stroke-width:0.8034;stroke-linecap:round;stroke-linejoin:round;stroke-miterlimit:10;}
	.st36{fill:none;stroke:#C7EBFF;stroke-width:0.8105;stroke-linecap:round;stroke-linejoin:round;stroke-miterlimit:10;}
	.st37{fill:none;stroke:#C7EBFF;stroke-width:0.7334;stroke-miterlimit:10;}
	.st38{fill:none;stroke:#F8FAFB;stroke-width:0.8876;stroke-linecap:round;stroke-linejoin:round;stroke-miterlimit:10;}
	.st39{fill:#2C8CF4;}
	.st40{fill:none;stroke:#B3B3FC;stroke-width:0.7108;stroke-linecap:round;stroke-linejoin:round;stroke-miterlimit:10;}
	.st41{fill:#5EB2FC;}
	.st42{fill:none;stroke:#C7EBFF;stroke-width:0.7108;stroke-miterlimit:10;}
	.st43{fill:none;stroke:#D7D7FF;stroke-width:0.7108;stroke-linecap:round;stroke-linejoin:round;stroke-miterlimit:10;}
	.st44{fill:#FFDECC;}
	.st45{fill:none;stroke:#FF8578;stroke-width:0.8225;stroke-linecap:round;stroke-linejoin:round;stroke-miterlimit:10;}
	.st46{fill:none;stroke:#EB7D16;stroke-width:0.8225;stroke-linecap:round;stroke-linejoin:round;stroke-miterlimit:10;}
	.st47{fill:none;stroke:#D7D7FF;stroke-width:0.8084;stroke-linecap:round;stroke-linejoin:round;stroke-miterlimit:10;}
	.st48{fill:none;stroke:#FFEEB6;stroke-width:0.7735;stroke-linecap:round;stroke-linejoin:round;stroke-miterlimit:10;}
	.st49{fill:none;stroke:#F69110;stroke-width:0.7735;stroke-linecap:round;stroke-linejoin:round;stroke-miterlimit:10;}
	.st50{fill:none;stroke:#D7D7FF;stroke-width:0.8104;stroke-linecap:round;stroke-linejoin:round;stroke-miterlimit:10;}
	.st51{fill:none;stroke:#FFEEB6;stroke-width:0.7754;stroke-linecap:round;stroke-linejoin:round;stroke-miterlimit:10;}
	.st52{fill:none;stroke:#F69110;stroke-width:0.7754;stroke-linecap:round;stroke-linejoin:round;stroke-miterlimit:10;}
	.st53{fill:none;stroke:#B3B3FC;stroke-width:0.8225;stroke-miterlimit:10;}
	.st54{fill:none;stroke:#D7D7FF;stroke-width:0.8225;stroke-miterlimit:10;}
	.st55{fill:none;stroke:#F8FAFB;stroke-width:0.8225;stroke-miterlimit:10;}
	.st56{fill:#4AD295;}
	.st57{fill:none;stroke:#FCBD24;stroke-width:0.823;stroke-linecap:round;stroke-linejoin:round;stroke-miterlimit:10;}
	.st58{fill:#0161CD;}
	.st59{fill:#0353A7;}
	.st60{fill:none;stroke:#1273EB;stroke-width:0.823;stroke-linecap:round;stroke-linejoin:round;stroke-miterlimit:10;}
	.st61{fill:none;stroke:#2C8CF4;stroke-width:0.823;stroke-linecap:round;stroke-linejoin:round;stroke-miterlimit:10;}
	.st62{fill:#1273EB;}
	.st63{fill:none;stroke:#5EB2FC;stroke-width:0.823;stroke-linecap:round;stroke-linejoin:round;stroke-miterlimit:10;}
	.st64{fill:none;stroke:#C7EBFF;stroke-width:0.823;stroke-linecap:round;stroke-linejoin:round;stroke-miterlimit:10;}
	.st65{fill:none;stroke:#1273EB;stroke-width:2.1295;stroke-linecap:round;stroke-linejoin:round;stroke-miterlimit:10;}
	.st66{fill:none;stroke:#2C8CF4;stroke-width:2.1295;stroke-linecap:round;stroke-linejoin:round;stroke-miterlimit:10;}
	.st67{fill:none;stroke:#F69110;stroke-width:0.823;stroke-linecap:round;stroke-linejoin:round;stroke-miterlimit:10;}
	.st68{fill:none;stroke:#FCDB7E;stroke-width:0.823;stroke-linecap:round;stroke-linejoin:round;stroke-miterlimit:10;}
	.st69{fill:none;stroke:#0353A7;stroke-width:0.823;stroke-linecap:round;stroke-linejoin:round;stroke-miterlimit:10;}
	.st70{fill:#869FB2;}
	.st71{fill:#69E781;}
	.st72{fill:#E2FFE2;}
	.st73{fill:none;stroke:#92CDFA;stroke-width:0.823;stroke-linecap:round;stroke-linejoin:round;stroke-miterlimit:10;}
	.st74{fill:none;stroke:#FFEEB6;stroke-width:0.823;stroke-linecap:round;stroke-linejoin:round;stroke-miterlimit:10;}
	.st75{fill:none;stroke:#0161CD;stroke-width:0.823;stroke-linecap:round;stroke-linejoin:round;stroke-miterlimit:10;}
	.st76{fill:none;stroke:#F8FAFB;stroke-width:0.823;stroke-linecap:round;stroke-linejoin:round;stroke-miterlimit:10;}
	.st77{fill:#EC3A3B;}
	.st78{fill:#FFC8AF;}
	.st79{fill:#FF8578;}
	.st80{fill:#FCA120;}
	.st81{fill:#EB7D16;}
	.st82{display:inline;fill:#BAC8D3;}
</style>
<g id="ICONOS_sin_expandir" class="st0">
</g>
<g id="ICONOS_EXPANDIDOS">
	<g id="XMLID_1517_">
		<g id="XMLID_1542_">
			<g id="XMLID_1712_">
				<path id="XMLID_1713_" class="st39" d="M33.4,38.2c2.3-0.7,34.8-2.4,36.3,0.3c1.5,2.7,1.7,62.6,0,64.3s-35.2,1.9-36.3,0
					C32.4,100.8,30.8,39,33.4,38.2z"/>
			</g>
			<g id="XMLID_1710_">
				<path id="XMLID_1711_" class="st22" d="M35.8,41.7c2.3-0.8,31.2-2.2,31.8,0c0.7,2.2,0.9,56.9,0,58.5c-1,1.6-31.2,1.4-31.8,0.1
					S34,42.2,35.8,41.7z"/>
			</g>
			<g id="XMLID_1708_">
				<polygon id="XMLID_1709_" class="st4" points="49.8,71 68.2,71 68.2,61.1 59,61.1 				"/>
			</g>
			<g id="XMLID_1706_">
				<path id="XMLID_1707_" class="st4" d="M52.3,101.7c-4.7,0-9.4-0.1-11.9-0.3c-4.7-0.3-4.8-0.7-4.9-1c-0.3-0.8-0.7-15.7-0.9-28.6
					c-0.1-10.4-0.2-28.1,0.8-30.2c0-0.1,0.1-0.3,0.3-0.4c1-0.3,7-0.8,13.5-1c0.2,0,0.4,0.1,0.4,0.3c0,0.2-0.1,0.4-0.3,0.4
					C42.3,41.3,37,41.7,36,42c-0.5,0.9-0.9,9-0.7,29.2c0.2,14.4,0.6,27.7,0.8,28.9c2,1.2,29.9,1.2,31.2-0.1
					c0.2-0.5,0.5-6.4,0.6-21.3c0-0.2,0.2-0.4,0.4-0.4c0,0,0,0,0,0c0.2,0,0.4,0.2,0.4,0.4c0,13.7-0.3,21-0.7,21.7
					C67.3,101.4,59.6,101.7,52.3,101.7z"/>
			</g>
			<g id="XMLID_1704_">
				<path id="XMLID_1705_" class="st32" d="M37.6,45c0.5-0.1,7.4-0.3,7.5,0c0.2,0.3,0.2,7.6,0,7.8c-0.2,0.2-7.4,0.3-7.5,0.1
					C37.5,52.8,37.2,45,37.6,45z"/>
			</g>
			<g id="XMLID_1702_">
				<path id="XMLID_1703_" class="st32" d="M47.7,45c0.5-0.1,7.4-0.3,7.5,0c0.2,0.3,0.2,7.6,0,7.8c-0.2,0.2-7.4,0.3-7.5,0.1
					S47.3,45,47.7,45z"/>
			</g>
			<g id="XMLID_1700_">
				<path id="XMLID_1701_" class="st4" d="M58,45c0.5-0.1,7.4-0.3,7.5,0c0.2,0.3,0.2,7.6,0,7.8c-0.2,0.2-7.4,0.3-7.5,0.1
					C57.9,52.8,57.6,45,58,45z"/>
			</g>
			<g id="XMLID_1698_">
				<path id="XMLID_1699_" class="st32" d="M37.6,57.1c0.5-0.1,7.4-0.3,7.5,0s0.2,7.6,0,7.8c-0.2,0.2-7.4,0.3-7.5,0.1
					C37.5,64.9,37.2,57.2,37.6,57.1z"/>
			</g>
			<g id="XMLID_1696_">
				<path id="XMLID_1697_" class="st32" d="M47.7,57.1c0.5-0.1,7.4-0.3,7.5,0s0.2,7.6,0,7.8c-0.2,0.2-7.4,0.3-7.5,0.1
					C47.6,64.9,47.3,57.2,47.7,57.1z"/>
			</g>
			<g id="XMLID_1694_">
				<path id="XMLID_1695_" class="st4" d="M58,57.1c0.5-0.1,7.4-0.3,7.5,0s0.2,7.6,0,7.8c-0.2,0.2-7.4,0.3-7.5,0.1
					C57.9,64.9,57.6,57.2,58,57.1z"/>
			</g>
			<g id="XMLID_1692_">
				<path id="XMLID_1693_" class="st41" d="M49.8,70.5l5.8-9.9c0,0-2.6-28.2,0-29.8c2.6-1.6,50.4-3.4,51.2-1.6
					c0.8,1.8,1,31.9,0,34.9c-1,3-44.4,0.4-44.4,0.4L49.8,70.5z"/>
			</g>
			<g id="XMLID_1545_">
				<path id="XMLID_1546_" class="st8" d="M50.1,70.7l-0.6-0.4l5.8-9.8c-0.5-5-2.5-28.4,0.2-30.1c2.7-1.7,46.6-3.3,51.1-1.9
					c0.2,0.1,0.5,0.2,0.6,0.4l-0.6,0.3c-1.7-1.4-48.2,0.2-50.7,1.8C54.1,32.2,55,49.8,56,60.6l0,0.1L50.1,70.7z"/>
			</g>
			<g id="XMLID_1544_">
				<path class="st8" d="M81.7,50.1C80.1,43,78.6,32.3,82.4,32c3.8-0.3,2.3,14.8,1.3,18.2C82.6,53.6,81.7,50.1,81.7,50.1z"/>
			</g>
			<g id="XMLID_1543_">
				<path class="st8" d="M82.6,53.8c1.8-0.1,3.7,1.2,3.7,3.1c0,1.8-2,3-3.5,3.1c-1,0.1-2.2-0.3-2.7-1.2c-0.8-1.4-0.1-3.5,1-4.5
					C81.6,54.1,82.1,53.9,82.6,53.8z"/>
			</g>
		</g>
		<g id="XMLID_1540_">
			<path id="XMLID_1541_" class="st4" d="M42.4,98.9c-0.1,0-0.1,0-0.2-0.1l-3.9-2.4c-0.1-0.1-0.2-0.2-0.2-0.3s0.1-0.2,0.2-0.3
				l3.9-1.8c0.2-0.1,0.4,0,0.5,0.2c0.1,0.2,0,0.4-0.2,0.5l-3.3,1.5l3.4,2c0.2,0.1,0.2,0.3,0.1,0.5C42.7,98.8,42.6,98.9,42.4,98.9z"
				/>
		</g>
		<g id="XMLID_1536_">
			<path id="XMLID_1537_" class="st4" d="M50.2,99.5c-0.6,0-1-0.2-1.4-0.5c-0.6-0.5-0.9-1.3-1-2.6c-0.1-0.8,0.3-1.6,1-2.2
				c0.6-0.6,1.3-0.9,1.8-0.8c1.3,0.1,2.2,0.6,2.8,1.3c0.7,0.9,0.7,1.9,0.6,2.4c-0.1,1.2-1.6,2.2-3.4,2.4
				C50.4,99.5,50.3,99.5,50.2,99.5z M50.4,94.1c-0.2,0-0.7,0.2-1.2,0.6c-0.5,0.5-0.8,1.1-0.8,1.7c0.1,1,0.3,1.7,0.7,2.1
				c0.3,0.3,0.7,0.3,1.2,0.3c1.7-0.2,2.7-1,2.8-1.8c0-0.3,0.1-1.1-0.5-1.8C52.3,94.6,51.5,94.2,50.4,94.1L50.4,94.1
				C50.4,94.1,50.4,94.1,50.4,94.1z"/>
		</g>
		<g id="XMLID_1534_">
			<path id="XMLID_1535_" class="st4" d="M58.3,94.7c-0.2,0-0.3-0.1-0.4-0.3c0-0.2,0.1-0.4,0.3-0.4c1.7-0.1,5,0,5.1,0
				c0.2,0,0.3,0.2,0.3,0.4c0,0.2-0.2,0.4-0.4,0.3C63.4,94.7,60,94.6,58.3,94.7C58.3,94.7,58.3,94.7,58.3,94.7z"/>
		</g>
		<g id="XMLID_1532_">
			<path id="XMLID_1533_" class="st4" d="M58.3,96.8c-0.1,0-0.2-0.1-0.3-0.2c-0.1-0.2,0-0.4,0.1-0.5c0.9-0.5,4.6-0.1,5.3,0
				c0.2,0,0.3,0.2,0.3,0.4c0,0.2-0.2,0.3-0.4,0.3c-1.7-0.2-4.4-0.3-4.9,0C58.4,96.8,58.4,96.8,58.3,96.8z"/>
		</g>
		<g id="XMLID_1530_">
			<path id="XMLID_1531_" class="st4" d="M58.3,98.9c-0.2,0-0.3-0.1-0.4-0.3c0-0.2,0.1-0.4,0.3-0.4c1.7-0.3,5.2-0.3,5.3-0.3
				c0.2,0,0.4,0.2,0.4,0.4s-0.2,0.4-0.4,0.4C63.5,98.6,60,98.6,58.3,98.9C58.3,98.9,58.3,98.9,58.3,98.9z"/>
		</g>
		<g id="XMLID_1528_">
			<path id="XMLID_1529_" class="st22" d="M40.5,63.4c-0.1,0-0.2-0.1-0.3-0.2c-0.1-0.2-0.5-0.8,3.1-4.4c0.1-0.1,0.4-0.1,0.5,0
				c0.1,0.1,0.1,0.4,0,0.5c-1.4,1.4-2.9,3.1-2.9,3.5c0.1,0.2,0,0.3-0.1,0.4C40.6,63.4,40.5,63.4,40.5,63.4z"/>
		</g>
		<g id="XMLID_1524_">
			<path id="XMLID_1525_" class="st22" d="M40.5,51.8C40.5,51.8,40.4,51.8,40.5,51.8c-0.2,0-0.3-0.1-0.3-0.2l-2-3.9
				c-0.1-0.1,0-0.2,0-0.4c0.1-0.1,0.2-0.2,0.3-0.2l5,0.3c0.1,0,0.3,0.1,0.3,0.2c0.1,0.1,0,0.3-0.1,0.4l-3,3.6
				C40.7,51.7,40.6,51.8,40.5,51.8z M39.1,47.9l1.4,2.9l2.2-2.7L39.1,47.9z"/>
		</g>
		<g id="XMLID_1520_">
			<path id="XMLID_1521_" class="st22" d="M49.8,63.4c0,0-0.1,0-0.1,0c-0.1-0.1-0.2-0.2-0.2-0.3v-3.9c0-0.2,0.2-0.4,0.4-0.4h3.8
				c0.1,0,0.3,0.1,0.3,0.2c0.1,0.1,0,0.3-0.1,0.4L50,63.3C50,63.4,49.9,63.4,49.8,63.4z M50.1,59.5v2.7l2.6-2.7H50.1z"/>
		</g>
		<g id="XMLID_1518_">
			<path id="XMLID_1519_" class="st22" d="M49.8,51.8c-0.2,0-0.3-0.1-0.4-0.3c-0.3-2.1-0.2-3.4,0.1-3.7c0.1-0.1,0.4-0.1,0.5,0
				c0.1,0.1,0.1,0.3,0,0.5c-0.1,0.3-0.1,1.8,0.1,3.1C50.2,51.6,50,51.7,49.8,51.8C49.8,51.8,49.8,51.8,49.8,51.8z"/>
		</g>
	</g>
</g>
<g id="guias" class="st0">
</g>
</svg>
